<?xml version="1.0" standalone="no"?>
<!DOCTYPE svg PUBLIC "-//W3C//DTD SVG 20010904//EN"
 "http://www.w3.org/TR/2001/REC-SVG-20010904/DTD/svg10.dtd">
<svg version="1.0" xmlns="http://www.w3.org/2000/svg"
 width="512.000000pt" height="512.000000pt" viewBox="0 0 512.000000 512.000000"
 preserveAspectRatio="xMidYMid meet">

<g transform="translate(0.000000,512.000000) scale(0.100000,-0.100000)"
fill="#000000" stroke="none">
<path d="M1360 5113 c-59 -10 -151 -46 -194 -77 -78 -55 -98 -93 -167 -310
l-64 -199 -140 -105 c-77 -58 -180 -132 -230 -164 -101 -67 -140 -101 -161
-140 -7 -14 -36 -154 -64 -310 -45 -256 -138 -750 -220 -1174 l-32 -161 127
-834 c74 -486 133 -846 142 -864 42 -82 133 -163 216 -191 47 -16 2544 -559
2649 -576 94 -16 196 0 290 45 40 19 327 148 638 287 311 138 584 262 606 275
45 27 95 95 124 172 14 38 34 244 95 968 l76 920 -150 784 c-85 443 -156 790
-163 797 -7 6 -154 100 -325 208 l-313 196 -137 0 -138 0 -98 59 c-75 44 -104
68 -125 102 -48 75 -157 166 -259 216 -360 175 -874 61 -1105 -246 l-26 -34
-39 18 c-53 26 -140 31 -200 11 -29 -10 -74 -38 -112 -71 -35 -31 -65 -54 -67
-53 -2 2 4 31 12 63 60 228 -177 433 -446 388z m1710 -237 c36 -8 84 -23 107
-33 l42 -18 -116 -201 c-112 -194 -118 -202 -156 -214 -81 -24 -131 -111 -110
-190 10 -38 8 -43 -90 -212 -55 -95 -101 -175 -103 -177 -9 -10 -74 30 -97 61
-25 33 -97 200 -97 225 0 17 419 745 438 761 21 16 101 15 182 -2z m-1490
-261 c0 -14 -19 -100 -41 -191 l-42 -166 -56 -24 c-31 -14 -109 -48 -175 -77
l-118 -51 -40 42 c-25 27 -37 49 -34 60 3 9 16 67 31 127 l26 111 217 96 c119
53 220 97 225 97 4 1 7 -10 7 -24z m596 -81 c19 -9 40 -26 46 -37 9 -18 35
-434 26 -441 -1 -2 -73 -49 -157 -104 -139 -90 -157 -99 -174 -87 -11 7 -64
57 -118 110 l-99 97 22 32 c65 91 322 432 332 438 20 13 87 9 122 -8z m1384
-186 l72 -177 -26 -45 c-14 -24 -73 -105 -130 -180 -58 -74 -106 -145 -108
-157 -2 -13 -29 41 -72 146 -49 120 -66 172 -60 185 35 71 240 417 245 412 4
-4 39 -87 79 -184z m462 80 c13 -6 56 -46 95 -88 l72 -76 -141 -162 c-78 -89
-145 -159 -148 -155 -4 5 -19 87 -34 183 -14 96 -29 184 -32 195 -6 25 26 69
70 96 35 22 84 25 118 7z"/>
</g>
</svg>
